<mxfile host="app.diagrams.net" modified="2022-11-10T07:17:15.146Z" agent="5.0 (Windows)" etag="kw3lv9wXbUXy8roVEoG4" version="20.5.3" type="github">
  <diagram id="OCvcjde6ZyOZ5i01Aby1" name="第 1 页">
    <mxGraphModel dx="753" dy="398" grid="1" gridSize="10" guides="1" tooltips="1" connect="1" arrows="1" fold="1" page="1" pageScale="1" pageWidth="827" pageHeight="1169" math="0" shadow="0">
      <root>
        <mxCell id="0" />
        <mxCell id="1" parent="0" />
        <mxCell id="QnGQLD7CcB_JtEEhjmXV-9" value="" style="edgeStyle=orthogonalEdgeStyle;rounded=0;orthogonalLoop=1;jettySize=auto;html=1;" edge="1" parent="1" source="QnGQLD7CcB_JtEEhjmXV-7" target="QnGQLD7CcB_JtEEhjmXV-8">
          <mxGeometry relative="1" as="geometry">
            <Array as="points">
              <mxPoint x="210" y="170" />
              <mxPoint x="210" y="170" />
            </Array>
          </mxGeometry>
        </mxCell>
        <mxCell id="QnGQLD7CcB_JtEEhjmXV-7" value="LisManager" style="rounded=0;whiteSpace=wrap;html=1;" vertex="1" parent="1">
          <mxGeometry x="70" y="150" width="120" height="60" as="geometry" />
        </mxCell>
        <mxCell id="QnGQLD7CcB_JtEEhjmXV-10" value="" style="edgeStyle=orthogonalEdgeStyle;rounded=0;orthogonalLoop=1;jettySize=auto;html=1;" edge="1" parent="1">
          <mxGeometry relative="1" as="geometry">
            <mxPoint x="354" y="190" as="sourcePoint" />
            <mxPoint x="190" y="190" as="targetPoint" />
          </mxGeometry>
        </mxCell>
        <mxCell id="QnGQLD7CcB_JtEEhjmXV-8" value="DLL的入口" style="ellipse;whiteSpace=wrap;html=1;fillColor=#f8cecc;strokeColor=#b85450;" vertex="1" parent="1">
          <mxGeometry x="354" y="140" width="120" height="80" as="geometry" />
        </mxCell>
        <mxCell id="QnGQLD7CcB_JtEEhjmXV-11" style="edgeStyle=orthogonalEdgeStyle;rounded=0;orthogonalLoop=1;jettySize=auto;html=1;entryX=1;entryY=0.5;entryDx=0;entryDy=0;" edge="1" parent="1" source="QnGQLD7CcB_JtEEhjmXV-8" target="QnGQLD7CcB_JtEEhjmXV-8">
          <mxGeometry relative="1" as="geometry" />
        </mxCell>
        <mxCell id="QnGQLD7CcB_JtEEhjmXV-12" value="发送数据" style="text;html=1;align=center;verticalAlign=middle;resizable=0;points=[];autosize=1;strokeColor=none;fillColor=none;" vertex="1" parent="1">
          <mxGeometry x="235" y="190" width="70" height="30" as="geometry" />
        </mxCell>
        <mxCell id="QnGQLD7CcB_JtEEhjmXV-13" value="接收数据" style="text;html=1;align=center;verticalAlign=middle;resizable=0;points=[];autosize=1;strokeColor=none;fillColor=none;" vertex="1" parent="1">
          <mxGeometry x="235" y="140" width="70" height="30" as="geometry" />
        </mxCell>
        <mxCell id="QnGQLD7CcB_JtEEhjmXV-14" value="单例初始化" style="text;html=1;align=center;verticalAlign=middle;resizable=0;points=[];autosize=1;strokeColor=none;fillColor=none;" vertex="1" parent="1">
          <mxGeometry x="430" y="95" width="80" height="30" as="geometry" />
        </mxCell>
        <mxCell id="QnGQLD7CcB_JtEEhjmXV-15" value="公共接口 parselData" style="text;html=1;align=center;verticalAlign=middle;resizable=0;points=[];autosize=1;strokeColor=none;fillColor=none;" vertex="1" parent="1">
          <mxGeometry x="360" y="230" width="130" height="30" as="geometry" />
        </mxCell>
        <mxCell id="QnGQLD7CcB_JtEEhjmXV-16" value="" style="verticalLabelPosition=bottom;verticalAlign=top;html=1;shape=mxgraph.basic.rect;fillColor2=none;strokeWidth=1;size=20;indent=5;" vertex="1" parent="1">
          <mxGeometry x="174" y="420" width="180" height="60" as="geometry" />
        </mxCell>
        <mxCell id="QnGQLD7CcB_JtEEhjmXV-19" value="" style="verticalLabelPosition=bottom;verticalAlign=top;html=1;shape=mxgraph.basic.rect;fillColor2=none;strokeWidth=1;size=20;indent=5;horizontal=0;" vertex="1" parent="1">
          <mxGeometry x="100" y="420" width="74" height="60" as="geometry" />
        </mxCell>
        <mxCell id="QnGQLD7CcB_JtEEhjmXV-20" value="FN" style="text;html=1;align=center;verticalAlign=middle;resizable=0;points=[];autosize=1;strokeColor=none;fillColor=none;" vertex="1" parent="1">
          <mxGeometry x="117" y="435" width="40" height="30" as="geometry" />
        </mxCell>
        <mxCell id="QnGQLD7CcB_JtEEhjmXV-28" value="" style="verticalLabelPosition=bottom;verticalAlign=top;html=1;shape=mxgraph.basic.rect;fillColor2=none;strokeWidth=1;size=20;indent=5;horizontal=0;" vertex="1" parent="1">
          <mxGeometry x="354" y="420" width="74" height="60" as="geometry" />
        </mxCell>
        <mxCell id="QnGQLD7CcB_JtEEhjmXV-29" value="" style="verticalLabelPosition=bottom;verticalAlign=top;html=1;shape=mxgraph.basic.rect;fillColor2=none;strokeWidth=1;size=20;indent=5;horizontal=0;" vertex="1" parent="1">
          <mxGeometry x="428" y="420" width="74" height="60" as="geometry" />
        </mxCell>
        <mxCell id="QnGQLD7CcB_JtEEhjmXV-30" value="" style="verticalLabelPosition=bottom;verticalAlign=top;html=1;shape=mxgraph.basic.rect;fillColor2=none;strokeWidth=1;size=20;indent=5;horizontal=0;" vertex="1" parent="1">
          <mxGeometry x="502" y="420" width="74" height="60" as="geometry" />
        </mxCell>
        <mxCell id="QnGQLD7CcB_JtEEhjmXV-31" value="Message Data (Utf16)" style="text;html=1;align=center;verticalAlign=middle;resizable=0;points=[];autosize=1;strokeColor=none;fillColor=none;" vertex="1" parent="1">
          <mxGeometry x="194" y="435" width="140" height="30" as="geometry" />
        </mxCell>
        <mxCell id="QnGQLD7CcB_JtEEhjmXV-32" value="" style="verticalLabelPosition=bottom;verticalAlign=top;html=1;shape=mxgraph.basic.rect;fillColor2=none;strokeWidth=1;size=20;indent=5;horizontal=0;" vertex="1" parent="1">
          <mxGeometry x="576" y="420" width="74" height="60" as="geometry" />
        </mxCell>
        <mxCell id="QnGQLD7CcB_JtEEhjmXV-33" value="ETB" style="text;html=1;align=center;verticalAlign=middle;resizable=0;points=[];autosize=1;strokeColor=none;fillColor=none;" vertex="1" parent="1">
          <mxGeometry x="366" y="435" width="50" height="30" as="geometry" />
        </mxCell>
        <mxCell id="QnGQLD7CcB_JtEEhjmXV-36" value="Check Sum" style="text;html=1;align=center;verticalAlign=middle;resizable=0;points=[];autosize=1;strokeColor=none;fillColor=none;" vertex="1" parent="1">
          <mxGeometry x="425" y="435" width="80" height="30" as="geometry" />
        </mxCell>
        <mxCell id="QnGQLD7CcB_JtEEhjmXV-37" value="CR" style="text;html=1;align=center;verticalAlign=middle;resizable=0;points=[];autosize=1;strokeColor=none;fillColor=none;" vertex="1" parent="1">
          <mxGeometry x="519" y="435" width="40" height="30" as="geometry" />
        </mxCell>
        <mxCell id="QnGQLD7CcB_JtEEhjmXV-38" value="LF" style="text;html=1;align=center;verticalAlign=middle;resizable=0;points=[];autosize=1;strokeColor=none;fillColor=none;" vertex="1" parent="1">
          <mxGeometry x="593" y="435" width="40" height="30" as="geometry" />
        </mxCell>
        <mxCell id="QnGQLD7CcB_JtEEhjmXV-40" value="" style="shape=curlyBracket;whiteSpace=wrap;html=1;rounded=1;labelPosition=left;verticalLabelPosition=middle;align=right;verticalAlign=middle;direction=south;" vertex="1" parent="1">
          <mxGeometry x="100" y="390" width="70" height="20" as="geometry" />
        </mxCell>
        <mxCell id="QnGQLD7CcB_JtEEhjmXV-41" value="" style="shape=curlyBracket;whiteSpace=wrap;html=1;rounded=1;labelPosition=left;verticalLabelPosition=middle;align=right;verticalAlign=middle;direction=south;size=0.5;" vertex="1" parent="1">
          <mxGeometry x="354" y="390" width="70" height="20" as="geometry" />
        </mxCell>
        <mxCell id="QnGQLD7CcB_JtEEhjmXV-42" value="" style="shape=curlyBracket;whiteSpace=wrap;html=1;rounded=1;labelPosition=left;verticalLabelPosition=middle;align=right;verticalAlign=middle;direction=south;size=0.5;" vertex="1" parent="1">
          <mxGeometry x="430" y="390" width="70" height="20" as="geometry" />
        </mxCell>
        <mxCell id="QnGQLD7CcB_JtEEhjmXV-43" value="" style="shape=curlyBracket;whiteSpace=wrap;html=1;rounded=1;labelPosition=left;verticalLabelPosition=middle;align=right;verticalAlign=middle;direction=south;size=0.5;" vertex="1" parent="1">
          <mxGeometry x="506" y="390" width="70" height="20" as="geometry" />
        </mxCell>
        <mxCell id="QnGQLD7CcB_JtEEhjmXV-44" value="" style="shape=curlyBracket;whiteSpace=wrap;html=1;rounded=1;labelPosition=left;verticalLabelPosition=middle;align=right;verticalAlign=middle;direction=south;size=0.5;" vertex="1" parent="1">
          <mxGeometry x="580" y="390" width="70" height="20" as="geometry" />
        </mxCell>
        <mxCell id="QnGQLD7CcB_JtEEhjmXV-45" value="1byte" style="text;html=1;align=center;verticalAlign=middle;resizable=0;points=[];autosize=1;strokeColor=none;fillColor=none;" vertex="1" parent="1">
          <mxGeometry x="112" y="366" width="50" height="30" as="geometry" />
        </mxCell>
        <mxCell id="QnGQLD7CcB_JtEEhjmXV-46" value="1byte" style="text;html=1;align=center;verticalAlign=middle;resizable=0;points=[];autosize=1;strokeColor=none;fillColor=none;" vertex="1" parent="1">
          <mxGeometry x="366" y="366" width="50" height="30" as="geometry" />
        </mxCell>
        <mxCell id="QnGQLD7CcB_JtEEhjmXV-47" value="2byte" style="text;html=1;align=center;verticalAlign=middle;resizable=0;points=[];autosize=1;strokeColor=none;fillColor=none;" vertex="1" parent="1">
          <mxGeometry x="440" y="366" width="50" height="30" as="geometry" />
        </mxCell>
        <mxCell id="QnGQLD7CcB_JtEEhjmXV-48" value="1byte" style="text;html=1;align=center;verticalAlign=middle;resizable=0;points=[];autosize=1;strokeColor=none;fillColor=none;" vertex="1" parent="1">
          <mxGeometry x="514" y="366" width="50" height="30" as="geometry" />
        </mxCell>
        <mxCell id="QnGQLD7CcB_JtEEhjmXV-49" value="1byte" style="text;html=1;align=center;verticalAlign=middle;resizable=0;points=[];autosize=1;strokeColor=none;fillColor=none;" vertex="1" parent="1">
          <mxGeometry x="588" y="366" width="50" height="30" as="geometry" />
        </mxCell>
        <mxCell id="QnGQLD7CcB_JtEEhjmXV-50" value="" style="shape=curlyBracket;whiteSpace=wrap;html=1;rounded=1;labelPosition=left;verticalLabelPosition=middle;align=right;verticalAlign=middle;direction=south;" vertex="1" parent="1">
          <mxGeometry x="174" y="390" width="176" height="20" as="geometry" />
        </mxCell>
        <mxCell id="QnGQLD7CcB_JtEEhjmXV-51" value="241byte" style="text;html=1;align=center;verticalAlign=middle;resizable=0;points=[];autosize=1;strokeColor=none;fillColor=none;" vertex="1" parent="1">
          <mxGeometry x="229" y="366" width="70" height="30" as="geometry" />
        </mxCell>
        <mxCell id="QnGQLD7CcB_JtEEhjmXV-56" value="" style="edgeStyle=elbowEdgeStyle;elbow=vertical;endArrow=classic;html=1;rounded=0;" edge="1" parent="1">
          <mxGeometry width="50" height="50" relative="1" as="geometry">
            <mxPoint x="134.5" y="540" as="sourcePoint" />
            <mxPoint x="134.5" y="490" as="targetPoint" />
          </mxGeometry>
        </mxCell>
        <mxCell id="QnGQLD7CcB_JtEEhjmXV-57" value="0-7" style="text;html=1;align=center;verticalAlign=middle;resizable=0;points=[];autosize=1;strokeColor=none;fillColor=none;fontColor=#0000FF;" vertex="1" parent="1">
          <mxGeometry x="115" y="530" width="40" height="30" as="geometry" />
        </mxCell>
        <mxCell id="QnGQLD7CcB_JtEEhjmXV-63" value="" style="edgeStyle=elbowEdgeStyle;elbow=vertical;endArrow=classic;html=1;rounded=0;" edge="1" parent="1">
          <mxGeometry width="50" height="50" relative="1" as="geometry">
            <mxPoint x="388.5" y="540" as="sourcePoint" />
            <mxPoint x="388.5" y="490" as="targetPoint" />
          </mxGeometry>
        </mxCell>
        <mxCell id="QnGQLD7CcB_JtEEhjmXV-64" value="" style="edgeStyle=elbowEdgeStyle;elbow=vertical;endArrow=classic;html=1;rounded=0;" edge="1" parent="1">
          <mxGeometry width="50" height="50" relative="1" as="geometry">
            <mxPoint x="464.5" y="540" as="sourcePoint" />
            <mxPoint x="464.5" y="490" as="targetPoint" />
          </mxGeometry>
        </mxCell>
        <mxCell id="QnGQLD7CcB_JtEEhjmXV-65" value="" style="edgeStyle=elbowEdgeStyle;elbow=vertical;endArrow=classic;html=1;rounded=0;" edge="1" parent="1">
          <mxGeometry width="50" height="50" relative="1" as="geometry">
            <mxPoint x="540.5" y="540" as="sourcePoint" />
            <mxPoint x="540.5" y="490" as="targetPoint" />
          </mxGeometry>
        </mxCell>
        <mxCell id="QnGQLD7CcB_JtEEhjmXV-67" value="" style="edgeStyle=elbowEdgeStyle;elbow=vertical;endArrow=classic;html=1;rounded=0;" edge="1" parent="1">
          <mxGeometry width="50" height="50" relative="1" as="geometry">
            <mxPoint x="614.5" y="540" as="sourcePoint" />
            <mxPoint x="614.5" y="490" as="targetPoint" />
          </mxGeometry>
        </mxCell>
        <mxCell id="QnGQLD7CcB_JtEEhjmXV-72" value="0x17" style="text;html=1;align=center;verticalAlign=middle;resizable=0;points=[];autosize=1;strokeColor=none;fillColor=none;fontColor=#0000FF;" vertex="1" parent="1">
          <mxGeometry x="364" y="530" width="50" height="30" as="geometry" />
        </mxCell>
        <mxCell id="QnGQLD7CcB_JtEEhjmXV-73" value="校验和" style="text;html=1;align=center;verticalAlign=middle;resizable=0;points=[];autosize=1;strokeColor=none;fillColor=none;fontColor=#0000FF;" vertex="1" parent="1">
          <mxGeometry x="435" y="530" width="60" height="30" as="geometry" />
        </mxCell>
        <mxCell id="QnGQLD7CcB_JtEEhjmXV-74" value="0x0D" style="text;html=1;align=center;verticalAlign=middle;resizable=0;points=[];autosize=1;strokeColor=none;fillColor=none;fontColor=#0000FF;" vertex="1" parent="1">
          <mxGeometry x="516" y="530" width="50" height="30" as="geometry" />
        </mxCell>
        <mxCell id="QnGQLD7CcB_JtEEhjmXV-75" value="0x0A" style="text;html=1;align=center;verticalAlign=middle;resizable=0;points=[];autosize=1;strokeColor=none;fillColor=none;fontColor=#0000FF;" vertex="1" parent="1">
          <mxGeometry x="588" y="530" width="50" height="30" as="geometry" />
        </mxCell>
        <mxCell id="QnGQLD7CcB_JtEEhjmXV-76" value="" style="verticalLabelPosition=bottom;verticalAlign=top;html=1;shape=mxgraph.basic.rect;fillColor2=none;strokeWidth=1;size=20;indent=5;" vertex="1" parent="1">
          <mxGeometry x="174" y="634" width="180" height="60" as="geometry" />
        </mxCell>
        <mxCell id="QnGQLD7CcB_JtEEhjmXV-77" value="" style="verticalLabelPosition=bottom;verticalAlign=top;html=1;shape=mxgraph.basic.rect;fillColor2=none;strokeWidth=1;size=20;indent=5;horizontal=0;" vertex="1" parent="1">
          <mxGeometry x="100" y="634" width="74" height="60" as="geometry" />
        </mxCell>
        <mxCell id="QnGQLD7CcB_JtEEhjmXV-78" value="FN" style="text;html=1;align=center;verticalAlign=middle;resizable=0;points=[];autosize=1;strokeColor=none;fillColor=none;" vertex="1" parent="1">
          <mxGeometry x="117" y="649" width="40" height="30" as="geometry" />
        </mxCell>
        <mxCell id="QnGQLD7CcB_JtEEhjmXV-79" value="" style="verticalLabelPosition=bottom;verticalAlign=top;html=1;shape=mxgraph.basic.rect;fillColor2=none;strokeWidth=1;size=20;indent=5;horizontal=0;" vertex="1" parent="1">
          <mxGeometry x="354" y="634" width="74" height="60" as="geometry" />
        </mxCell>
        <mxCell id="QnGQLD7CcB_JtEEhjmXV-80" value="" style="verticalLabelPosition=bottom;verticalAlign=top;html=1;shape=mxgraph.basic.rect;fillColor2=none;strokeWidth=1;size=20;indent=5;horizontal=0;" vertex="1" parent="1">
          <mxGeometry x="428" y="634" width="74" height="60" as="geometry" />
        </mxCell>
        <mxCell id="QnGQLD7CcB_JtEEhjmXV-81" value="" style="verticalLabelPosition=bottom;verticalAlign=top;html=1;shape=mxgraph.basic.rect;fillColor2=none;strokeWidth=1;size=20;indent=5;horizontal=0;" vertex="1" parent="1">
          <mxGeometry x="502" y="634" width="74" height="60" as="geometry" />
        </mxCell>
        <mxCell id="QnGQLD7CcB_JtEEhjmXV-82" value="Message Data (Utf16)" style="text;html=1;align=center;verticalAlign=middle;resizable=0;points=[];autosize=1;strokeColor=none;fillColor=none;" vertex="1" parent="1">
          <mxGeometry x="194" y="649" width="140" height="30" as="geometry" />
        </mxCell>
        <mxCell id="QnGQLD7CcB_JtEEhjmXV-83" value="" style="verticalLabelPosition=bottom;verticalAlign=top;html=1;shape=mxgraph.basic.rect;fillColor2=none;strokeWidth=1;size=20;indent=5;horizontal=0;" vertex="1" parent="1">
          <mxGeometry x="576" y="634" width="74" height="60" as="geometry" />
        </mxCell>
        <mxCell id="QnGQLD7CcB_JtEEhjmXV-84" value="ETX" style="text;html=1;align=center;verticalAlign=middle;resizable=0;points=[];autosize=1;strokeColor=none;fillColor=none;" vertex="1" parent="1">
          <mxGeometry x="366" y="649" width="50" height="30" as="geometry" />
        </mxCell>
        <mxCell id="QnGQLD7CcB_JtEEhjmXV-85" value="Check Sum" style="text;html=1;align=center;verticalAlign=middle;resizable=0;points=[];autosize=1;strokeColor=none;fillColor=none;" vertex="1" parent="1">
          <mxGeometry x="425" y="649" width="80" height="30" as="geometry" />
        </mxCell>
        <mxCell id="QnGQLD7CcB_JtEEhjmXV-86" value="CR" style="text;html=1;align=center;verticalAlign=middle;resizable=0;points=[];autosize=1;strokeColor=none;fillColor=none;" vertex="1" parent="1">
          <mxGeometry x="519" y="649" width="40" height="30" as="geometry" />
        </mxCell>
        <mxCell id="QnGQLD7CcB_JtEEhjmXV-87" value="LF" style="text;html=1;align=center;verticalAlign=middle;resizable=0;points=[];autosize=1;strokeColor=none;fillColor=none;" vertex="1" parent="1">
          <mxGeometry x="593" y="649" width="40" height="30" as="geometry" />
        </mxCell>
        <mxCell id="QnGQLD7CcB_JtEEhjmXV-88" value="" style="shape=curlyBracket;whiteSpace=wrap;html=1;rounded=1;labelPosition=left;verticalLabelPosition=middle;align=right;verticalAlign=middle;direction=south;" vertex="1" parent="1">
          <mxGeometry x="100" y="604" width="70" height="20" as="geometry" />
        </mxCell>
        <mxCell id="QnGQLD7CcB_JtEEhjmXV-89" value="" style="shape=curlyBracket;whiteSpace=wrap;html=1;rounded=1;labelPosition=left;verticalLabelPosition=middle;align=right;verticalAlign=middle;direction=south;size=0.5;" vertex="1" parent="1">
          <mxGeometry x="354" y="604" width="70" height="20" as="geometry" />
        </mxCell>
        <mxCell id="QnGQLD7CcB_JtEEhjmXV-90" value="" style="shape=curlyBracket;whiteSpace=wrap;html=1;rounded=1;labelPosition=left;verticalLabelPosition=middle;align=right;verticalAlign=middle;direction=south;size=0.5;" vertex="1" parent="1">
          <mxGeometry x="430" y="604" width="70" height="20" as="geometry" />
        </mxCell>
        <mxCell id="QnGQLD7CcB_JtEEhjmXV-91" value="" style="shape=curlyBracket;whiteSpace=wrap;html=1;rounded=1;labelPosition=left;verticalLabelPosition=middle;align=right;verticalAlign=middle;direction=south;size=0.5;" vertex="1" parent="1">
          <mxGeometry x="506" y="604" width="70" height="20" as="geometry" />
        </mxCell>
        <mxCell id="QnGQLD7CcB_JtEEhjmXV-92" value="" style="shape=curlyBracket;whiteSpace=wrap;html=1;rounded=1;labelPosition=left;verticalLabelPosition=middle;align=right;verticalAlign=middle;direction=south;size=0.5;" vertex="1" parent="1">
          <mxGeometry x="580" y="604" width="70" height="20" as="geometry" />
        </mxCell>
        <mxCell id="QnGQLD7CcB_JtEEhjmXV-93" value="1byte" style="text;html=1;align=center;verticalAlign=middle;resizable=0;points=[];autosize=1;strokeColor=none;fillColor=none;" vertex="1" parent="1">
          <mxGeometry x="112" y="580" width="50" height="30" as="geometry" />
        </mxCell>
        <mxCell id="QnGQLD7CcB_JtEEhjmXV-94" value="1byte" style="text;html=1;align=center;verticalAlign=middle;resizable=0;points=[];autosize=1;strokeColor=none;fillColor=none;" vertex="1" parent="1">
          <mxGeometry x="366" y="580" width="50" height="30" as="geometry" />
        </mxCell>
        <mxCell id="QnGQLD7CcB_JtEEhjmXV-95" value="2byte" style="text;html=1;align=center;verticalAlign=middle;resizable=0;points=[];autosize=1;strokeColor=none;fillColor=none;" vertex="1" parent="1">
          <mxGeometry x="440" y="580" width="50" height="30" as="geometry" />
        </mxCell>
        <mxCell id="QnGQLD7CcB_JtEEhjmXV-96" value="1byte" style="text;html=1;align=center;verticalAlign=middle;resizable=0;points=[];autosize=1;strokeColor=none;fillColor=none;" vertex="1" parent="1">
          <mxGeometry x="514" y="580" width="50" height="30" as="geometry" />
        </mxCell>
        <mxCell id="QnGQLD7CcB_JtEEhjmXV-97" value="1byte" style="text;html=1;align=center;verticalAlign=middle;resizable=0;points=[];autosize=1;strokeColor=none;fillColor=none;" vertex="1" parent="1">
          <mxGeometry x="588" y="580" width="50" height="30" as="geometry" />
        </mxCell>
        <mxCell id="QnGQLD7CcB_JtEEhjmXV-98" value="" style="shape=curlyBracket;whiteSpace=wrap;html=1;rounded=1;labelPosition=left;verticalLabelPosition=middle;align=right;verticalAlign=middle;direction=south;" vertex="1" parent="1">
          <mxGeometry x="174" y="604" width="176" height="20" as="geometry" />
        </mxCell>
        <mxCell id="QnGQLD7CcB_JtEEhjmXV-99" value="nbyte" style="text;html=1;align=center;verticalAlign=middle;resizable=0;points=[];autosize=1;strokeColor=none;fillColor=none;" vertex="1" parent="1">
          <mxGeometry x="239" y="580" width="50" height="30" as="geometry" />
        </mxCell>
        <mxCell id="QnGQLD7CcB_JtEEhjmXV-100" value="" style="edgeStyle=elbowEdgeStyle;elbow=vertical;endArrow=classic;html=1;rounded=0;" edge="1" parent="1">
          <mxGeometry width="50" height="50" relative="1" as="geometry">
            <mxPoint x="134.5" y="754" as="sourcePoint" />
            <mxPoint x="134.5" y="704" as="targetPoint" />
          </mxGeometry>
        </mxCell>
        <mxCell id="QnGQLD7CcB_JtEEhjmXV-101" value="0-7" style="text;html=1;align=center;verticalAlign=middle;resizable=0;points=[];autosize=1;strokeColor=none;fillColor=none;fontColor=#0000FF;" vertex="1" parent="1">
          <mxGeometry x="115" y="744" width="40" height="30" as="geometry" />
        </mxCell>
        <mxCell id="QnGQLD7CcB_JtEEhjmXV-102" value="" style="edgeStyle=elbowEdgeStyle;elbow=vertical;endArrow=classic;html=1;rounded=0;" edge="1" parent="1">
          <mxGeometry width="50" height="50" relative="1" as="geometry">
            <mxPoint x="388.5" y="754" as="sourcePoint" />
            <mxPoint x="388.5" y="704" as="targetPoint" />
          </mxGeometry>
        </mxCell>
        <mxCell id="QnGQLD7CcB_JtEEhjmXV-103" value="" style="edgeStyle=elbowEdgeStyle;elbow=vertical;endArrow=classic;html=1;rounded=0;" edge="1" parent="1">
          <mxGeometry width="50" height="50" relative="1" as="geometry">
            <mxPoint x="464.5" y="754" as="sourcePoint" />
            <mxPoint x="464.5" y="704" as="targetPoint" />
          </mxGeometry>
        </mxCell>
        <mxCell id="QnGQLD7CcB_JtEEhjmXV-104" value="" style="edgeStyle=elbowEdgeStyle;elbow=vertical;endArrow=classic;html=1;rounded=0;" edge="1" parent="1">
          <mxGeometry width="50" height="50" relative="1" as="geometry">
            <mxPoint x="540.5" y="754" as="sourcePoint" />
            <mxPoint x="540.5" y="704" as="targetPoint" />
          </mxGeometry>
        </mxCell>
        <mxCell id="QnGQLD7CcB_JtEEhjmXV-105" value="" style="edgeStyle=elbowEdgeStyle;elbow=vertical;endArrow=classic;html=1;rounded=0;" edge="1" parent="1">
          <mxGeometry width="50" height="50" relative="1" as="geometry">
            <mxPoint x="614.5" y="754" as="sourcePoint" />
            <mxPoint x="614.5" y="704" as="targetPoint" />
          </mxGeometry>
        </mxCell>
        <mxCell id="QnGQLD7CcB_JtEEhjmXV-106" value="0x03" style="text;html=1;align=center;verticalAlign=middle;resizable=0;points=[];autosize=1;strokeColor=none;fillColor=none;fontColor=#0000FF;" vertex="1" parent="1">
          <mxGeometry x="364" y="744" width="50" height="30" as="geometry" />
        </mxCell>
        <mxCell id="QnGQLD7CcB_JtEEhjmXV-107" value="校验和" style="text;html=1;align=center;verticalAlign=middle;resizable=0;points=[];autosize=1;strokeColor=none;fillColor=none;fontColor=#0000FF;" vertex="1" parent="1">
          <mxGeometry x="435" y="744" width="60" height="30" as="geometry" />
        </mxCell>
        <mxCell id="QnGQLD7CcB_JtEEhjmXV-108" value="0x0D" style="text;html=1;align=center;verticalAlign=middle;resizable=0;points=[];autosize=1;strokeColor=none;fillColor=none;fontColor=#0000FF;" vertex="1" parent="1">
          <mxGeometry x="516" y="744" width="50" height="30" as="geometry" />
        </mxCell>
        <mxCell id="QnGQLD7CcB_JtEEhjmXV-109" value="0x0A" style="text;html=1;align=center;verticalAlign=middle;resizable=0;points=[];autosize=1;strokeColor=none;fillColor=none;fontColor=#0000FF;" vertex="1" parent="1">
          <mxGeometry x="588" y="744" width="50" height="30" as="geometry" />
        </mxCell>
        <mxCell id="QnGQLD7CcB_JtEEhjmXV-110" value="" style="verticalLabelPosition=bottom;verticalAlign=top;html=1;shape=mxgraph.basic.rect;fillColor2=none;strokeWidth=1;size=20;indent=5;horizontal=0;" vertex="1" parent="1">
          <mxGeometry x="26" y="420" width="74" height="60" as="geometry" />
        </mxCell>
        <mxCell id="QnGQLD7CcB_JtEEhjmXV-111" value="STX" style="text;html=1;align=center;verticalAlign=middle;resizable=0;points=[];autosize=1;strokeColor=none;fillColor=none;" vertex="1" parent="1">
          <mxGeometry x="38" y="435" width="50" height="30" as="geometry" />
        </mxCell>
        <mxCell id="QnGQLD7CcB_JtEEhjmXV-112" value="" style="shape=curlyBracket;whiteSpace=wrap;html=1;rounded=1;labelPosition=left;verticalLabelPosition=middle;align=right;verticalAlign=middle;direction=south;" vertex="1" parent="1">
          <mxGeometry x="26" y="390" width="70" height="20" as="geometry" />
        </mxCell>
        <mxCell id="QnGQLD7CcB_JtEEhjmXV-113" value="" style="edgeStyle=elbowEdgeStyle;elbow=vertical;endArrow=classic;html=1;rounded=0;" edge="1" parent="1">
          <mxGeometry width="50" height="50" relative="1" as="geometry">
            <mxPoint x="60.5" y="540" as="sourcePoint" />
            <mxPoint x="60.5" y="490" as="targetPoint" />
          </mxGeometry>
        </mxCell>
        <mxCell id="QnGQLD7CcB_JtEEhjmXV-114" value="" style="verticalLabelPosition=bottom;verticalAlign=top;html=1;shape=mxgraph.basic.rect;fillColor2=none;strokeWidth=1;size=20;indent=5;horizontal=0;" vertex="1" parent="1">
          <mxGeometry x="26" y="634" width="74" height="60" as="geometry" />
        </mxCell>
        <mxCell id="QnGQLD7CcB_JtEEhjmXV-115" value="STX" style="text;html=1;align=center;verticalAlign=middle;resizable=0;points=[];autosize=1;strokeColor=none;fillColor=none;" vertex="1" parent="1">
          <mxGeometry x="38" y="649" width="50" height="30" as="geometry" />
        </mxCell>
        <mxCell id="QnGQLD7CcB_JtEEhjmXV-116" value="" style="shape=curlyBracket;whiteSpace=wrap;html=1;rounded=1;labelPosition=left;verticalLabelPosition=middle;align=right;verticalAlign=middle;direction=south;" vertex="1" parent="1">
          <mxGeometry x="26" y="604" width="70" height="20" as="geometry" />
        </mxCell>
        <mxCell id="QnGQLD7CcB_JtEEhjmXV-117" value="" style="edgeStyle=elbowEdgeStyle;elbow=vertical;endArrow=classic;html=1;rounded=0;" edge="1" parent="1">
          <mxGeometry width="50" height="50" relative="1" as="geometry">
            <mxPoint x="60.5" y="754" as="sourcePoint" />
            <mxPoint x="60.5" y="704" as="targetPoint" />
          </mxGeometry>
        </mxCell>
        <mxCell id="QnGQLD7CcB_JtEEhjmXV-118" value="0x02" style="text;html=1;align=center;verticalAlign=middle;resizable=0;points=[];autosize=1;strokeColor=none;fillColor=none;fontColor=#0000FF;" vertex="1" parent="1">
          <mxGeometry x="36" y="530" width="50" height="30" as="geometry" />
        </mxCell>
        <mxCell id="QnGQLD7CcB_JtEEhjmXV-119" value="1byte" style="text;html=1;align=center;verticalAlign=middle;resizable=0;points=[];autosize=1;strokeColor=none;fillColor=none;" vertex="1" parent="1">
          <mxGeometry x="36" y="366" width="50" height="30" as="geometry" />
        </mxCell>
        <mxCell id="QnGQLD7CcB_JtEEhjmXV-120" value="1byte" style="text;html=1;align=center;verticalAlign=middle;resizable=0;points=[];autosize=1;strokeColor=none;fillColor=none;" vertex="1" parent="1">
          <mxGeometry x="36" y="580" width="50" height="30" as="geometry" />
        </mxCell>
        <mxCell id="QnGQLD7CcB_JtEEhjmXV-122" value="0x02" style="text;html=1;align=center;verticalAlign=middle;resizable=0;points=[];autosize=1;strokeColor=none;fillColor=none;fontColor=#0000FF;" vertex="1" parent="1">
          <mxGeometry x="36" y="744" width="50" height="30" as="geometry" />
        </mxCell>
      </root>
    </mxGraphModel>
  </diagram>
</mxfile>
